<svg width="440" height="440" viewBox="0 0 440 440" fill="none" xmlns="http://www.w3.org/2000/svg">
<path d="M95.216 113.678C111.157 113.678 124.08 100.756 124.08 84.8144C124.08 68.8732 111.157 55.9504 95.216 55.9504C79.2749 55.9504 66.3521 68.8732 66.3521 84.8144C66.3521 100.756 79.2749 113.678 95.216 113.678Z" fill="#EBEBEB"/>
<path d="M116.01 104.931C126.766 94.1746 126.766 76.7347 116.01 65.9781C105.253 55.2215 87.8132 55.2215 77.0566 65.9781C66.3 76.7347 66.3 94.1746 77.0566 104.931C87.8132 115.688 105.253 115.688 116.01 104.931Z" fill="#DBDBDB"/>
<path d="M106.233 109.368C119.438 104.011 125.8 88.9641 120.444 75.7594C115.087 62.5546 100.04 56.1924 86.8356 61.5489C73.6308 66.9054 67.2686 81.9523 72.6251 95.157C77.9816 108.362 93.0285 114.724 106.233 109.368Z" fill="white"/>
<path d="M96.8704 61.5296H96.2104V65.4368H96.8704V61.5296Z" fill="#EBEBEB"/>
<path d="M84.8522 64.5754L84.2805 64.9053L86.2335 68.2894L86.8052 67.9595L84.8522 64.5754Z" fill="#EBEBEB"/>
<path d="M75.9698 73.1983L75.6399 73.7699L79.024 75.7229L79.3539 75.1513L75.9698 73.1983Z" fill="#EBEBEB"/>
<path d="M76.516 85.1312H72.6088V85.7912H76.516V85.1312Z" fill="#EBEBEB"/>
<path d="M79.3429 95.5736L75.9436 97.5272L76.2736 98.1014L79.6729 96.1478L79.3429 95.5736Z" fill="#EBEBEB"/>
<path d="M86.2388 102.637L84.287 106.022L84.8587 106.351L86.8106 102.966L86.2388 102.637Z" fill="#EBEBEB"/>
<path d="M96.8704 105.477H96.2104V109.384H96.8704V105.477Z" fill="#EBEBEB"/>
<path d="M106.832 102.651L106.26 102.981L108.214 106.365L108.786 106.035L106.832 102.651Z" fill="#EBEBEB"/>
<path d="M114.043 95.1847L113.713 95.7563L117.096 97.7099L117.426 97.1383L114.043 95.1847Z" fill="#EBEBEB"/>
<path d="M120.472 85.1312H116.556V85.7912H120.472V85.1312Z" fill="#EBEBEB"/>
<path d="M117.562 73.5086L114.163 75.4622L114.493 76.0364L117.892 74.0828L117.562 73.5086Z" fill="#EBEBEB"/>
<path d="M108.218 64.5798L106.267 67.9646L106.838 68.2943L108.79 64.9095L108.218 64.5798Z" fill="#EBEBEB"/>
<path d="M100.364 77.1836L89.0458 99.436L89.634 99.7353L100.953 77.4828L100.364 77.1836Z" fill="#EBEBEB"/>
<path d="M95.2188 76.588L94.356 76.7607L99.1821 100.87L100.045 100.697L95.2188 76.588Z" fill="#DBDBDB"/>
<path d="M406.27 76.3928H281.195V313.042H406.27V76.3928Z" fill="#EBEBEB"/>
<path d="M395.56 88.1672H291.905V238.418H395.56V88.1672Z" fill="white"/>
<path d="M298.522 336.855H290.259V313.042H304.964L298.522 336.855Z" fill="#EBEBEB"/>
<path d="M304.964 313.042L302.588 321.816H290.25V313.042H304.964Z" fill="#C7C7C7"/>
<path d="M388.934 336.855H397.197V313.042H382.492L388.934 336.855Z" fill="#EBEBEB"/>
<path d="M382.492 313.042L384.868 321.816H397.206V313.042H382.492Z" fill="#C7C7C7"/>
<path d="M395.56 249.146C387.79 249.304 380.028 249.392 372.266 249.454C364.505 249.515 356.734 249.524 348.973 249.568L349.395 249.146C349.395 253.044 349.395 256.951 349.395 260.858V272.571C349.307 280.386 349.228 288.191 349.034 296.006C348.832 288.191 348.753 280.386 348.665 272.571L348.621 260.858C348.621 256.951 348.621 253.044 348.621 249.146V248.714H349.043C356.805 248.758 364.566 248.714 372.337 248.829C380.107 248.943 387.79 248.978 395.56 249.146Z" fill="#C7C7C7"/>
<path d="M348.973 302.72C356.734 302.553 364.496 302.465 372.267 302.403C380.037 302.342 387.79 302.333 395.56 302.289L395.12 302.72C395.12 298.883 395.12 295.055 395.12 291.227L395.173 279.734C395.252 272.07 395.331 264.414 395.534 256.749C395.727 264.414 395.806 272.07 395.886 279.734L395.938 291.227C395.938 295.055 395.982 298.883 395.938 302.72V303.142H395.516C387.746 303.098 379.984 303.142 372.223 303.037C364.461 302.931 356.734 302.852 348.973 302.72Z" fill="#C7C7C7"/>
<path d="M354.182 281.855H357.711V268.338H354.182V281.855Z" fill="#C7C7C7"/>
<path d="M291.905 249.146C299.666 248.978 307.428 248.89 315.198 248.829C322.969 248.767 330.722 248.758 338.492 248.714H338.906V249.146C338.906 253.044 338.906 256.951 338.906 260.858L338.853 272.571C338.774 280.386 338.694 288.191 338.492 296.006C338.29 288.191 338.21 280.386 338.122 272.571L338.078 260.858C338.078 256.951 338.078 253.044 338.078 249.146L338.501 249.568C330.73 249.524 322.969 249.568 315.207 249.454C307.446 249.339 299.666 249.304 291.905 249.146Z" fill="#C7C7C7"/>
<path d="M338.492 302.72C330.722 302.878 322.96 302.966 315.198 303.037C307.437 303.107 299.666 303.098 291.905 303.142H291.482V302.72C291.482 298.883 291.482 295.055 291.482 291.227L291.535 279.734C291.614 272.07 291.694 264.414 291.896 256.749C292.09 264.414 292.169 272.07 292.248 279.734L292.301 291.227C292.301 295.055 292.345 298.883 292.301 302.72L291.878 302.289C299.64 302.289 307.402 302.289 315.172 302.403C322.942 302.518 330.722 302.526 338.492 302.72Z" fill="#C7C7C7"/>
<path d="M333.274 268.33H329.745V281.846H333.274V268.33Z" fill="#C7C7C7"/>
<path d="M395.56 136.154H291.905V137.764H395.56V136.154Z" fill="#C7C7C7"/>
<path d="M395.56 168.766H291.905V170.377H395.56V168.766Z" fill="#C7C7C7"/>
<path d="M395.56 201.379H291.905V202.99H395.56V201.379Z" fill="#C7C7C7"/>
<path d="M344.925 88.1672H342.54V238.418H344.925V88.1672Z" fill="#EBEBEB"/>
<path d="M153.938 246.488L156.042 259.116L170.306 336.151H172.603L162.237 259.116L160.697 246.488H153.938Z" fill="#EBEBEB"/>
<path d="M160.697 246.488H153.938L156.042 259.116H162.237L160.697 246.488Z" fill="#C7C7C7"/>
<path d="M109.146 336.151H111.443L125.708 259.116L127.811 246.488H121.053L119.513 259.116L109.146 336.151Z" fill="#EBEBEB"/>
<path d="M121.053 246.488L119.513 259.116H125.708L127.811 246.488H121.053Z" fill="#C7C7C7"/>
<path d="M66.3608 336.151H68.6576L82.9224 259.116L85.0256 246.488H78.2672L76.7272 259.116L66.3608 336.151Z" fill="#EBEBEB"/>
<path d="M76.7273 259.116H82.9225L85.0257 246.488H78.2673L76.7273 259.116Z" fill="#C7C7C7"/>
<path d="M70.004 252.428H174.53V243.945L135.397 241.41L122.25 165.563H73.9904L70.004 252.428Z" fill="#EBEBEB"/>
<path d="M70.004 252.428H75.7064L79.42 165.563H73.9904L70.004 252.428Z" fill="#C7C7C7"/>
<path d="M220 402.917C285.777 402.917 339.099 393.977 339.099 382.95C339.099 371.922 285.777 362.982 220 362.982C154.223 362.982 100.901 371.922 100.901 382.95C100.901 393.977 154.223 402.917 220 402.917Z" fill="#EBEBEB"/>
<path d="M78.2056 391.371C102.458 391.371 122.118 387.222 122.118 382.105C122.118 376.987 102.458 372.838 78.2056 372.838C53.9537 372.838 34.2936 376.987 34.2936 382.105C34.2936 387.222 53.9537 391.371 78.2056 391.371Z" fill="#EBEBEB"/>
<path d="M352.352 391.371C376.604 391.371 396.264 387.222 396.264 382.105C396.264 376.987 376.604 372.838 352.352 372.838C328.1 372.838 308.44 376.987 308.44 382.105C308.44 387.222 328.1 391.371 352.352 391.371Z" fill="#EBEBEB"/>
<path d="M29.392 336.855L77.044 336.644L124.696 336.565L220 336.424L315.304 336.565L362.956 336.644L410.608 336.855L362.956 337.075L315.304 337.154L220 337.295L124.696 337.154L77.044 337.075L29.392 336.855Z" fill="#263238"/>
<path d="M240.803 212.59H173.237V336.723H240.803V212.59Z" fill="#455A64"/>
<path d="M240.803 212.59H173.237V220.686H240.803V212.59Z" fill="#263238"/>
<path d="M269.817 206.07H36.6871V212.599H269.817V206.07Z" fill="#455A64"/>
<path d="M51.1015 212.599L50.8815 220.686L48.0391 336.732H42.8735V212.599H51.1015Z" fill="#455A64"/>
<path d="M42.8735 212.599H51.1015L50.8815 220.686H42.8735V212.599Z" fill="#263238"/>
<path d="M263.701 212.59H240.803V336.723H263.701V212.59Z" fill="#37474F"/>
<path d="M263.701 212.59H240.803V220.686H263.701V212.59Z" fill="#263238"/>
<path d="M104.922 286.317C101.93 283.386 98.0672 279.849 93.4824 281.107C89.188 282.295 87.5424 286.994 86.768 290.902C85.7824 295.935 85.008 301.022 84.2072 306.099C83.4064 311.177 82.6408 316.351 81.9016 321.482C81.4909 324.38 81.0802 327.275 80.6696 330.167L80.08 334.514C79.8864 335.94 79.6488 337.357 79.5696 338.791C79.5696 339.249 80.2648 339.319 80.3616 338.879C80.916 336.459 81.1448 333.951 81.4968 331.496C81.8488 329.041 82.2096 326.568 82.5792 324.095C83.2949 319.196 84.0253 314.301 84.7704 309.408C85.5155 304.515 86.2781 299.619 87.0584 294.721C87.7184 290.567 88.0264 285.419 91.7048 282.682C92.7017 281.997 93.8569 281.578 95.0611 281.464C96.2653 281.35 97.4786 281.545 98.5864 282.031C101.006 282.955 102.986 284.671 104.834 286.431C104.896 286.458 104.975 286.37 104.922 286.317Z" fill="#263238"/>
<path d="M100.83 283.36C100.83 283.36 94.7232 281.16 91.7048 285.613C88.6864 290.066 92.2944 301.453 120.111 307.806C119.292 299.112 117.029 290.615 113.414 282.665C107.457 269.632 96.8 274.56 100.83 283.36Z" fill="#009246"/>
<path d="M118.51 305.923C118.09 305.141 117.623 304.386 117.11 303.662C116.644 302.949 116.178 302.236 115.702 301.523C115.342 300.986 114.981 300.458 114.611 299.93C114.611 299.798 114.611 299.666 114.664 299.534C114.717 299.402 114.726 299.05 114.761 298.813C114.831 298.285 114.902 297.765 114.981 297.246C115.06 296.727 115.139 296.217 115.245 295.697C115.307 295.141 115.428 294.592 115.606 294.061C115.606 293.982 115.5 293.938 115.482 294.061C115.424 294.36 115.342 294.655 115.236 294.941L115.051 295.645C114.919 296.173 114.787 296.701 114.664 297.237C114.541 297.774 114.462 298.214 114.382 298.716C114.341 298.956 114.306 299.194 114.277 299.429C113.775 298.716 113.274 298.021 112.754 297.334C111.276 295.39 109.71 293.515 108.099 291.685C108.099 291.685 108.099 291.685 108.099 291.641C108.249 288.71 108.178 285.824 108.83 282.946C108.83 282.867 108.724 282.823 108.706 282.902C107.971 285.612 107.621 288.411 107.668 291.218C107.087 290.567 106.506 289.925 105.908 289.291C104.553 287.83 103.171 286.399 101.763 284.997C101.71 284.944 101.622 284.997 101.675 285.085C104.016 287.601 106.242 290.233 108.407 292.908C106.713 292.882 105.018 292.943 103.33 293.093C101.438 293.233 99.5719 293.48 97.6975 293.735C97.6183 293.735 97.6359 293.867 97.6975 293.858C99.5616 293.59 101.439 293.423 103.321 293.357C105.142 293.277 106.946 293.357 108.759 293.357C109.93 294.809 111.091 296.269 112.226 297.757H110.695C109.815 297.757 108.997 297.836 108.161 297.906C106.432 298.046 104.716 298.302 103.022 298.672C103.005 298.672 102.99 298.678 102.978 298.69C102.966 298.701 102.96 298.717 102.96 298.734C102.96 298.75 102.966 298.766 102.978 298.777C102.99 298.789 103.005 298.795 103.022 298.795C104.729 298.602 106.445 298.443 108.161 298.382C108.979 298.382 109.798 298.382 110.625 298.382H111.901C112.137 298.415 112.378 298.394 112.605 298.32C113.353 299.288 114.101 300.265 114.84 301.242C115.427 302.016 116.013 302.799 116.6 303.591C117.19 304.401 117.718 305.281 118.36 306.037C118.457 306.046 118.536 305.985 118.51 305.923Z" fill="#263238"/>
<path d="M103.488 289.643C102.503 289.51 101.508 289.46 100.514 289.494C99.5193 289.494 98.5337 289.494 97.5393 289.555C97.4513 289.555 97.4513 289.687 97.5393 289.678C98.5425 289.608 99.5457 289.59 100.558 289.608C101.57 289.626 102.502 289.714 103.479 289.687C103.523 289.687 103.523 289.643 103.488 289.643Z" fill="#263238"/>
<path d="M112.218 291.878C112.332 290.928 112.455 289.978 112.658 289.045C112.658 288.957 112.543 288.922 112.534 289.045C112.394 289.978 112.209 290.902 112.068 291.843C111.998 292.31 111.936 292.776 111.883 293.251C111.797 293.686 111.758 294.128 111.769 294.571C111.769 294.592 111.777 294.612 111.792 294.627C111.807 294.642 111.827 294.65 111.848 294.65C111.869 294.65 111.889 294.642 111.904 294.627C111.919 294.612 111.927 294.592 111.927 294.571C112.012 294.133 112.062 293.689 112.077 293.242C112.121 292.785 112.165 292.336 112.218 291.878Z" fill="#263238"/>
<path d="M110.387 281.353C110.15 282.233 109.903 283.219 109.736 284.161C109.648 284.636 109.578 285.111 109.507 285.595C109.421 286.059 109.391 286.532 109.419 287.003C109.419 287.003 109.481 287.003 109.49 287.003C109.599 286.564 109.673 286.117 109.71 285.665C109.771 285.199 109.842 284.741 109.921 284.284C110.088 283.316 110.264 282.357 110.51 281.397C110.528 281.318 110.414 281.274 110.387 281.353Z" fill="#263238"/>
<path d="M74.1751 337.761C74.0167 336.001 73.8495 334.241 73.6647 332.481C73.3039 329.014 72.8727 325.556 72.4151 322.106C71.9575 318.657 71.5351 315.216 70.9543 311.784C70.7443 310.2 70.3878 308.638 69.8895 307.12C69.7066 306.461 69.3729 305.854 68.9146 305.347C68.4564 304.84 67.8863 304.447 67.2495 304.198C63.9759 303.063 61.7759 306.46 60.4471 308.862C60.4471 308.933 60.5175 308.985 60.5615 308.924C61.3535 307.78 63.5359 304.594 66.0175 304.735C67.6895 304.841 69.0271 306.02 69.8279 310.191C71.8255 320.566 73.6295 341.625 73.8407 342.997C73.9463 343.728 74.4655 343.701 74.4743 342.918C74.5271 341.202 74.3247 339.477 74.1751 337.761Z" fill="#263238"/>
<path d="M61.3799 307.578C61.3799 307.578 64.2399 297.44 57.9127 302.526C47.3527 310.93 47.0183 329.217 47.0183 329.217C47.0183 329.217 65.7271 318.349 68.0503 311.186C71.5175 300.511 61.3799 307.578 61.3799 307.578Z" fill="#009246"/>
<path d="M64.9176 312.532C63.448 312.831 61.9608 313.025 60.5176 313.245L58.4056 313.535C57.9392 313.605 57.4552 313.649 56.98 313.702C58.3704 311.784 59.7784 309.874 61.116 307.912C61.1688 307.841 61.0456 307.762 60.984 307.824C59.8756 308.967 58.8326 310.171 57.86 311.432L57.0328 309.082C56.716 308.202 56.3728 307.278 56.1528 306.354C56.1528 306.275 56.012 306.31 56.0296 306.354C56.2848 307.278 56.4696 308.22 56.716 309.153C56.9624 310.085 57.2264 310.913 57.5432 311.793C56.8568 312.673 56.1968 313.597 55.5632 314.512C55.2376 313.632 54.8416 312.752 54.56 311.793C54.56 311.713 54.4104 311.793 54.4368 311.793C54.7712 312.822 54.956 313.887 55.2728 314.917C54.8416 315.541 54.3928 316.175 53.9968 316.809C53.2488 317.97 52.536 319.158 51.832 320.329C51.779 320.353 51.7351 320.393 51.7066 320.443C51.6781 320.494 51.6665 320.553 51.6736 320.61C50.4856 322.661 49.368 324.737 48.2592 326.823C48.2592 326.902 48.3296 326.964 48.3648 326.885C49.4736 324.817 50.7144 322.81 51.9992 320.83C52.1991 320.766 52.4058 320.724 52.6152 320.707L53.2576 320.566C53.7416 320.461 54.2256 320.337 54.7008 320.223C55.6512 319.985 56.5928 319.757 57.552 319.598C57.6312 319.598 57.552 319.457 57.552 319.475C56.4168 319.686 55.2816 319.818 54.1376 319.95C53.6008 320.012 53.064 320.082 52.5272 320.17H52.448C53.1168 319.149 53.8032 318.137 54.4896 317.134C55.176 316.131 55.8712 315.172 56.5752 314.204C57.2176 314.107 57.86 313.94 58.5112 313.817L60.676 313.394C62.128 313.104 63.5712 312.778 65.0232 312.514C65.032 312.637 64.9968 312.514 64.9176 312.532Z" fill="#263238"/>
<path d="M53.68 313.526C53.6008 313.262 53.5128 312.998 53.4336 312.726C53.259 312.171 53.115 311.607 53.0024 311.036C53.0024 310.957 52.8616 310.992 52.8792 311.036C53.0024 311.608 53.1344 312.171 53.2664 312.743C53.3875 313.315 53.5522 313.877 53.7592 314.424C53.7728 314.446 53.7933 314.463 53.8175 314.471C53.8417 314.48 53.8682 314.48 53.8926 314.472C53.9171 314.464 53.938 314.448 53.9521 314.426C53.9663 314.405 53.9727 314.379 53.9704 314.354C53.8824 314.098 53.768 313.817 53.68 313.526Z" fill="#263238"/>
<path d="M66.8801 310.2C66.0001 310.323 65.1201 310.385 64.3017 310.455C63.4833 310.526 62.5417 310.658 61.7321 310.781V310.86C62.6121 310.798 63.4921 310.737 64.3105 310.622C65.1289 310.508 66.0177 310.385 66.8801 310.323C66.8801 310.314 66.8801 310.182 66.8801 310.2Z" fill="#263238"/>
<path d="M87.9384 324.975C87.6128 317.539 87.1376 310.121 86.3896 302.711C86.02 299.024 85.6064 295.337 85.0872 291.667C84.6215 288.058 83.907 284.486 82.9488 280.975C82.301 278.251 81.1032 275.687 79.4288 273.442C78.5955 272.352 77.4983 271.491 76.2405 270.941C74.9827 270.392 73.6057 270.171 72.2392 270.301C68.9832 270.706 66.3608 272.756 64.0992 274.982C61.556 277.482 59.224 280.21 56.8744 282.902C56.276 283.58 55.6864 284.258 55.1144 284.944C55.0616 285.006 55.1144 285.094 55.2112 285.032C57.508 282.392 59.9016 279.814 62.4096 277.358C64.7152 275.088 67.1 272.606 70.3296 271.665C71.8191 271.191 73.4134 271.154 74.9232 271.559C76.1224 271.939 77.2022 272.624 78.056 273.548C79.7598 275.526 80.9666 277.882 81.576 280.421C83.5824 287.258 84.2952 294.422 85.0344 301.479C85.7736 308.537 86.3016 315.841 86.6624 323.039C87.0232 330.238 87.3048 337.533 88 344.749C88.088 345.629 88.2024 346.509 88.3168 347.389C88.396 347.987 89.32 347.987 89.276 347.389C88.616 339.918 88.2728 332.455 87.9384 324.975Z" fill="#263238"/>
<path d="M63.6504 275.792C63.6504 275.792 67.9008 267.934 62.8848 265.408C57.8688 262.882 41.0696 281.6 36.168 309.038C36.168 309.038 63.2896 297.044 72.5032 285.085C81.7168 273.126 71.28 270.494 63.6504 275.792Z" fill="#009246"/>
<path d="M67.6456 282.181C64.592 282.181 61.556 281.952 58.5024 281.969L60.2624 280.007C61.1158 279.138 61.9123 278.215 62.6472 277.244C62.6472 277.173 62.6472 277.085 62.5416 277.138C61.7126 277.847 60.9416 278.621 60.236 279.453C59.4704 280.262 58.7048 281.072 57.9568 281.89C56.7864 283.149 55.6424 284.433 54.5072 285.718C54.5072 285.595 54.5072 285.472 54.5072 285.349C54.5072 284.812 54.5072 284.284 54.5072 283.747V280.649C54.5072 278.546 54.5072 276.443 54.6744 274.349C54.6744 274.269 54.5512 274.278 54.5424 274.349C54.4016 276.452 54.1816 278.537 54.076 280.649C54.076 281.679 54.0056 282.717 53.988 283.747C53.988 284.284 53.988 284.821 53.988 285.349C53.988 285.639 53.988 285.947 53.988 286.229C53.812 286.431 53.6272 286.625 53.4424 286.827C51.0136 289.608 48.6992 292.485 46.4464 295.407C46.4464 295.249 46.4464 295.081 46.4464 294.923L46.3408 293.955C46.2616 293.26 46.1648 292.565 46.0592 291.869C45.9536 291.174 45.8568 290.558 45.7512 289.907C45.6456 289.256 45.4432 288.429 45.3904 287.689C45.3904 287.673 45.3839 287.657 45.3724 287.646C45.3608 287.634 45.3451 287.628 45.3288 287.628C45.3125 287.628 45.2968 287.634 45.2852 287.646C45.2737 287.657 45.2672 287.673 45.2672 287.689C45.3961 288.429 45.4813 289.175 45.5224 289.925L45.7072 291.94C45.7688 292.609 45.8304 293.277 45.9008 293.955C45.9008 294.272 45.9624 294.597 45.9976 294.914L46.0504 295.398C46.0655 295.535 46.1106 295.668 46.1824 295.785L45.0208 297.299C43.4896 299.332 41.976 301.391 40.4624 303.459C40.4624 303.521 40.4624 303.609 40.5592 303.547C41.9848 301.681 43.4544 299.851 44.9592 298.038C46.0768 298.038 47.212 298.038 48.3296 297.985C49.4472 297.933 50.6792 297.985 51.8496 297.985C51.8659 297.985 51.8816 297.979 51.8932 297.967C51.9047 297.956 51.9112 297.94 51.9112 297.924C51.9112 297.908 51.9047 297.892 51.8932 297.88C51.8816 297.869 51.8659 297.862 51.8496 297.862H48.3296C47.256 297.862 46.156 297.809 45.0912 297.862C46.4053 296.272 47.7253 294.685 49.0512 293.101C49.5352 292.529 50.028 291.957 50.512 291.341C50.9609 291.404 51.4152 291.419 51.8672 291.385H53.4776C54.472 291.385 55.4752 291.385 56.4784 291.341C58.5464 291.341 60.6232 291.245 62.6912 291.236C62.7075 291.236 62.7232 291.229 62.7348 291.218C62.7463 291.206 62.7528 291.191 62.7528 291.174C62.7528 291.158 62.7463 291.142 62.7348 291.131C62.7232 291.119 62.7075 291.113 62.6912 291.113C60.6144 291.113 58.5464 290.998 56.4696 290.945C55.4664 290.945 54.4632 290.884 53.46 290.875H51.8584C51.5504 290.875 51.2424 290.875 50.9784 290.875C52.1136 289.529 53.2488 288.173 54.3928 286.827C54.4178 286.808 54.4387 286.784 54.4544 286.757C55.5632 285.443 56.6779 284.134 57.7984 282.832L58.2648 282.304C61.424 282.401 64.5832 282.189 67.7424 282.251C67.7476 282.238 67.7484 282.224 67.7447 282.211C67.7409 282.198 67.7328 282.186 67.7217 282.178C67.7105 282.17 67.6969 282.166 67.6831 282.166C67.6694 282.167 67.6561 282.172 67.6456 282.181Z" fill="#263238"/>
<path d="M66.0792 287.566H65.34C65.2696 287.566 65.2784 287.681 65.34 287.681H66.0792C66.1672 287.698 66.1672 287.566 66.0792 287.566Z" fill="#263238"/>
<path d="M64.4424 287.575C63.4656 287.575 62.4888 287.575 61.512 287.514L60.0424 287.47C59.5925 287.412 59.1371 287.412 58.6872 287.47C58.6755 287.47 58.6643 287.474 58.6561 287.482C58.6478 287.491 58.6432 287.502 58.6432 287.514C58.6432 287.525 58.6478 287.536 58.6561 287.545C58.6643 287.553 58.6755 287.558 58.6872 287.558C59.1354 287.652 59.5942 287.684 60.0512 287.654H61.512H64.4424C64.4503 287.643 64.4546 287.629 64.4546 287.615C64.4546 287.601 64.4503 287.587 64.4424 287.575Z" fill="#263238"/>
<path d="M55.9152 296.727C53.9303 296.403 51.9245 296.224 49.9136 296.19V296.234C51.9112 296.428 53.9088 296.534 55.88 296.85C55.8963 296.855 55.9138 296.853 55.9287 296.845C55.9435 296.836 55.9545 296.823 55.9592 296.806C55.9638 296.79 55.9618 296.772 55.9536 296.758C55.9453 296.743 55.9315 296.732 55.9152 296.727Z" fill="#263238"/>
<path d="M47.7577 288.006C47.7577 287.83 47.7577 287.654 47.6961 287.478C47.6521 287.091 47.5905 286.695 47.5289 286.308C47.4057 285.56 47.2737 284.821 47.1329 284.081C47.1329 284.011 47.0009 284.029 47.0097 284.081C47.1065 284.847 47.1857 285.613 47.2649 286.387C47.2649 286.765 47.3265 287.144 47.3617 287.513C47.3467 287.895 47.4003 288.277 47.5201 288.64C47.5729 288.754 47.7489 288.701 47.7841 288.596C47.8187 288.4 47.8097 288.198 47.7577 288.006Z" fill="#263238"/>
<path d="M87.6744 265.698C86.7064 263.886 85.4656 261.501 83.0456 261.65C81.048 261.782 80.1416 263.824 79.7192 265.505C78.3904 270.723 78.32 276.232 78.0472 281.6C77.5016 292.908 77.0088 304.225 76.9384 315.542C76.9384 318.674 76.9384 321.816 76.9384 324.949C76.9384 328.082 76.9384 331.373 77.1584 334.567C77.1689 334.621 77.1979 334.67 77.2405 334.705C77.283 334.74 77.3364 334.759 77.3916 334.759C77.4467 334.759 77.5001 334.74 77.5426 334.705C77.5852 334.67 77.6142 334.621 77.6248 334.567C77.6248 331.83 77.5456 329.094 77.5368 326.357C77.528 323.62 77.5368 321.015 77.5896 318.34C77.6776 312.937 77.8213 307.531 78.0208 302.122C78.2232 296.745 78.4608 291.377 78.6896 286L79.0328 277.948C79.156 275.308 79.2616 272.738 79.5608 270.151C79.728 268.699 79.948 267.256 80.2472 265.822C80.3994 264.763 80.8307 263.763 81.4968 262.926C81.959 262.475 82.5659 262.202 83.2101 262.156C83.8543 262.109 84.4942 262.291 85.0168 262.671C86.1328 263.449 87.0152 264.517 87.5688 265.76C87.604 265.83 87.7096 265.76 87.6744 265.698Z" fill="#263238"/>
<path d="M87.0232 264.88C87.0232 264.88 85.0256 257.84 89.4344 261.36C96.7648 267.212 97.02 279.954 97.02 279.954C97.02 279.954 83.9872 272.386 82.368 267.388C79.9568 259.908 87.0232 264.88 87.0232 264.88Z" fill="#009246"/>
<path d="M94.2831 274.683L93.9135 274.111C93.9267 273.912 93.9267 273.712 93.9135 273.513C93.9135 273.205 93.9135 272.906 93.9135 272.633C93.9135 272.034 93.9135 271.445 93.9751 270.873C93.9751 270.794 93.8607 270.794 93.8519 270.873C93.8519 271.462 93.7991 272.043 93.7815 272.633V273.513C93.7815 273.618 93.7815 273.75 93.7815 273.882C93.2711 273.09 92.7431 272.307 92.1975 271.533C92.0391 271.304 91.8807 271.084 91.7135 270.864C91.6519 270.1 91.6519 269.332 91.7135 268.567C91.7135 267.749 91.7135 266.93 91.7135 266.121C91.7135 266.033 91.5903 266.042 91.5903 266.121C91.5903 267.001 91.5287 267.819 91.4847 268.673C91.432 269.276 91.4143 269.881 91.4319 270.486C90.1735 268.778 88.8359 267.124 87.4895 265.487C87.4455 265.434 87.3487 265.487 87.3927 265.566C88.2287 266.622 89.0295 267.714 89.8127 268.814C88.2815 268.453 86.7239 268.25 85.1663 268.022C85.0871 268.022 85.0519 268.136 85.1663 268.145C86.8207 268.391 88.4399 268.805 90.0679 269.166C90.6839 270.046 91.3087 270.926 91.9159 271.806C92.1711 272.166 92.4087 272.536 92.6551 272.897H92.5847L92.0831 272.826C91.7223 272.782 91.3615 272.756 91.0007 272.73C90.2439 272.668 89.4959 272.633 88.7391 272.589C88.7228 272.589 88.7071 272.595 88.6956 272.607C88.684 272.618 88.6775 272.634 88.6775 272.65C88.6775 272.667 88.684 272.682 88.6956 272.694C88.7071 272.705 88.7228 272.712 88.7391 272.712C89.4871 272.712 90.2175 272.791 90.9567 272.87C91.3439 272.87 91.7311 272.967 92.1271 273.011L92.6287 273.073H92.7783L94.0367 274.921C94.7671 276.003 95.4271 277.174 96.2103 278.221C96.2631 278.282 96.3511 278.221 96.3159 278.159C95.7036 276.964 95.0249 275.803 94.2831 274.683Z" fill="#263238"/>
<path d="M91.0361 266.737C91.0361 266.464 91.0361 266.191 91.0361 265.918C91.0229 265.331 91.0464 264.743 91.1065 264.158C91.1065 264.142 91.1 264.126 91.0884 264.115C91.0769 264.103 91.0612 264.097 91.0449 264.097C91.0285 264.097 91.0129 264.103 91.0013 264.115C90.9898 264.126 90.9833 264.142 90.9833 264.158C90.9833 264.722 90.9217 265.294 90.8953 265.866C90.8953 266.147 90.8953 266.438 90.8953 266.746C90.8953 266.878 90.8953 267.01 90.8953 267.142C90.8731 267.276 90.8731 267.412 90.8953 267.546C90.8953 267.56 90.9008 267.574 90.9107 267.584C90.9206 267.594 90.9341 267.599 90.9481 267.599C90.9621 267.599 90.9755 267.594 90.9854 267.584C90.9953 267.574 91.0009 267.56 91.0009 267.546C91.0227 267.421 91.0227 267.293 91.0009 267.168L91.0361 266.737Z" fill="#263238"/>
<path d="M89.4257 269.658C88.9388 269.582 88.4483 269.533 87.9561 269.509C87.4193 269.456 86.8825 269.412 86.3457 269.342C86.2577 269.342 86.2401 269.465 86.3457 269.465C87.3753 269.535 88.4049 269.72 89.4345 269.755C89.4436 269.75 89.4511 269.743 89.456 269.734C89.4609 269.725 89.4631 269.714 89.4621 269.704C89.4612 269.694 89.4572 269.684 89.4508 269.676C89.4443 269.668 89.4356 269.662 89.4257 269.658Z" fill="#263238"/>
<path d="M93.5176 269.694C93.5352 269.784 93.5352 269.876 93.5176 269.966V270.16C93.5176 270.327 93.5176 270.486 93.5176 270.653V271.146C93.4911 271.288 93.4911 271.434 93.5176 271.577C93.5176 271.577 93.5176 271.577 93.5704 271.577C93.5876 271.507 93.5876 271.435 93.5704 271.366V271.146C93.5704 270.978 93.5704 270.811 93.5704 270.653V269.931C93.5704 269.861 93.5704 269.72 93.5704 269.658C93.5704 269.597 93.4384 269.579 93.5176 269.694Z" fill="#263238"/>
<path d="M88 303.23C85.2544 301.18 82.7904 298.223 79.1032 298.074C76.0672 297.959 73.9288 300.247 72.7144 302.799C72.1026 304.155 71.6023 305.559 71.2184 306.997C70.6728 308.921 70.1566 310.857 69.6696 312.805C68.7016 316.642 67.8803 320.496 67.2056 324.368C66.836 326.533 66.4928 328.698 66.22 330.88C65.8745 333.089 65.6599 335.316 65.5776 337.55C65.584 337.632 65.6185 337.708 65.6751 337.767C65.7318 337.826 65.8071 337.863 65.8882 337.873C65.9693 337.882 66.0512 337.863 66.1197 337.819C66.1883 337.774 66.2393 337.707 66.264 337.63C66.6336 335.808 66.7832 333.925 67.056 332.086C67.3288 330.246 67.6016 328.381 67.936 326.533C68.5579 322.837 69.2854 319.164 70.1184 315.515C70.9016 312.066 71.676 308.563 72.7584 305.202C73.5504 302.799 74.8352 299.983 77.4312 299.121C81.3912 297.801 84.9816 301.154 87.8768 303.327C88 303.371 88.044 303.283 88 303.23Z" fill="#263238"/>
<path d="M85.14 301.268C85.14 301.268 82.6144 294.052 86.2664 292.635C91.7488 290.514 106.084 306.662 103.277 331.355C103.277 331.355 92.1976 325.257 84.0224 318.393C75.8472 311.529 73.7528 302.553 77.352 300.247C80.9512 297.942 85.14 301.268 85.14 301.268Z" fill="#009246"/>
<path d="M101.622 326.093C101.238 325.231 100.791 324.399 100.285 323.602C99.8184 322.722 99.3432 321.913 98.8592 321.077C97.9088 319.449 96.9584 317.812 95.9816 316.201L95.5064 315.418C95.5064 315.321 95.5064 315.225 95.568 315.128L95.7264 314.415C95.8496 313.878 95.9464 313.333 96.0432 312.796C96.2456 311.74 96.4216 310.666 96.712 309.628C96.712 309.612 96.7055 309.596 96.6939 309.584C96.6824 309.573 96.6667 309.566 96.6504 309.566C96.634 309.566 96.6184 309.573 96.6068 309.584C96.5952 309.596 96.5888 309.612 96.5888 309.628C96.36 310.684 96.0256 311.731 95.7088 312.761C95.5504 313.271 95.392 313.781 95.2512 314.301C95.2512 314.477 95.1632 314.653 95.1104 314.829C93.94 312.893 92.7432 310.974 91.4496 309.117C91.5324 308.862 91.574 308.594 91.5728 308.325L91.7048 307.243C91.8016 306.425 91.8896 305.615 92.0128 304.805C92.2226 303.21 92.5163 301.627 92.8928 300.062C92.8928 299.983 92.796 299.965 92.7696 300.062C92.3824 301.62 91.9512 303.177 91.652 304.753C91.5112 305.527 91.3704 306.31 91.2648 307.085C91.212 307.481 91.1768 307.868 91.1328 308.264C91.1328 308.378 91.1328 308.501 91.1328 308.616C90.7368 308.053 90.3408 307.498 89.9184 306.953C88.66 305.289 87.3488 303.661 86.02 302.042C86.02 301.981 85.8704 302.042 85.9232 302.113C88.1883 305.01 90.2664 308.05 92.1448 311.212C92.5144 311.793 92.8664 312.373 93.2272 312.972L92.8664 312.928C92.4088 312.875 91.9336 312.84 91.476 312.796L88.6776 312.558C86.812 312.409 84.9376 312.294 83.0808 312.092C83.0016 312.092 82.9752 312.206 83.0808 312.215C84.9728 312.435 86.8472 312.734 88.7216 313.007C89.6016 313.139 90.5696 313.262 91.5024 313.377C92.2035 313.518 92.9167 313.592 93.632 313.597C94.3712 314.77 95.1045 315.961 95.832 317.169C95.668 317.156 95.5031 317.156 95.3392 317.169H92.6992C91.4936 317.169 90.2968 317.169 89.0912 317.169C89.012 317.169 89.0296 317.293 89.0912 317.293C90.3056 317.293 91.52 317.372 92.7344 317.433C93.3152 317.433 93.8872 317.495 94.4944 317.539L95.3744 317.601C95.6238 317.654 95.8817 317.654 96.1312 317.601C96.756 318.613 97.3896 319.625 98.0056 320.637C98.6216 321.649 99.1584 322.502 99.7656 323.426C100.322 324.413 100.952 325.357 101.649 326.251C101.659 326.249 101.669 326.246 101.678 326.24C101.687 326.234 101.695 326.227 101.701 326.219C101.707 326.21 101.711 326.2 101.714 326.19C101.716 326.18 101.716 326.169 101.715 326.159C101.713 326.148 101.709 326.138 101.704 326.129C101.698 326.12 101.691 326.113 101.682 326.107C101.674 326.1 101.664 326.096 101.654 326.094C101.643 326.091 101.633 326.091 101.622 326.093Z" fill="#263238"/>
<path d="M96.3424 306.099C96.2307 306.895 96.0661 307.683 95.8496 308.457C95.6384 309.258 95.4096 310.05 95.1456 310.833C95.1422 310.843 95.1407 310.854 95.1412 310.864C95.1418 310.875 95.1444 310.885 95.1489 310.894C95.1534 310.904 95.1597 310.912 95.1674 310.919C95.1752 310.926 95.1842 310.931 95.194 310.935C95.2039 310.938 95.2143 310.94 95.2247 310.939C95.2351 310.939 95.2453 310.936 95.2547 310.931C95.2641 310.927 95.2725 310.921 95.2794 310.913C95.2864 310.905 95.2918 310.896 95.2952 310.886C95.5416 310.103 95.7616 309.32 95.9552 308.519C96.1488 307.718 96.272 306.917 96.4656 306.125C96.4832 306.046 96.3512 306.02 96.3424 306.099Z" fill="#263238"/>
<path d="M88.2025 310.93C88.0347 310.79 87.8231 310.712 87.6041 310.71L86.5569 310.57L84.6121 310.332C83.2569 310.174 81.9105 310.042 80.5553 309.874C80.4761 309.874 80.4585 309.989 80.5553 309.998C81.8313 310.147 83.0897 310.341 84.3657 310.508L86.2313 310.754L87.1113 310.851C87.4591 310.852 87.8043 310.911 88.1321 311.027C88.2025 311.062 88.2465 310.974 88.2025 310.93Z" fill="#263238"/>
<path d="M96.3247 321.816C95.6823 321.754 95.0399 321.737 94.4063 321.719H93.4383H92.9719C92.7729 321.737 92.5726 321.737 92.3735 321.719C92.2767 321.719 92.2679 321.86 92.3735 321.842C92.5609 321.825 92.7494 321.825 92.9367 321.842H93.4383L94.4063 321.904C95.0487 321.904 95.6911 321.983 96.3247 321.983C96.3951 321.948 96.4039 321.816 96.3247 321.816Z" fill="#263238"/>
<path d="M100.223 319.044C100.305 318.68 100.376 318.319 100.434 317.962L100.83 315.814C100.83 315.798 100.824 315.782 100.812 315.771C100.801 315.759 100.785 315.753 100.769 315.753C100.752 315.753 100.737 315.759 100.725 315.771C100.714 315.782 100.707 315.798 100.707 315.814L100.232 317.9C100.153 318.243 100.082 318.595 100.003 318.938C100.003 319.106 99.9416 319.264 99.9064 319.422C99.8542 319.587 99.8362 319.761 99.8536 319.933C99.8536 319.994 99.9504 320.038 99.9856 319.933C100.12 319.654 100.2 319.353 100.223 319.044Z" fill="#263238"/>
<path d="M98.7536 340.366L98.1376 350.592L96.316 380.776H58.9952L57.1736 350.592L56.5576 340.366H98.7536Z" fill="#455A64"/>
<path d="M98.7536 340.366L98.1376 350.592H57.1736L56.5576 340.366H98.7536Z" fill="#263238"/>
<path d="M101.614 333.133H53.7064V343.367H101.614V333.133Z" fill="#455A64"/>
<path d="M214.386 330.51C214.386 330.51 209.238 368.395 209.238 368.421C209.141 375.672 208.93 382.026 208.516 385.299C208.52 385.317 208.52 385.335 208.516 385.352C208.509 386.129 208.316 386.892 207.953 387.579L207.909 387.631C205.735 389.057 147.805 390.007 145.772 389.391C143.739 388.775 145.429 382.906 147.646 381.075C149.864 379.245 171.89 368.958 171.89 368.958L177.399 331.118L214.386 330.51Z" fill="#E7BD8C"/>
<path d="M209.159 373.12C209.044 378.4 208.842 382.8 208.516 385.335C208.52 385.352 208.52 385.37 208.516 385.387C208.509 386.164 208.316 386.927 207.953 387.614C207.953 387.614 207.953 387.614 207.953 387.658C205.771 389.092 147.84 390.034 145.807 389.418C143.775 388.802 145.464 382.932 147.682 381.102C148.747 380.222 154.343 377.423 159.887 374.731C158.127 376.112 156.367 377.811 157.168 378.497C158.55 379.641 193.679 378.4 209.159 373.12Z" fill="#263238"/>
<path d="M163.108 373.12C163.108 373.12 173.36 368.456 190.942 376.895L163.108 373.12Z" fill="#263238"/>
<path d="M223.045 356.62L172.559 355.81L197.965 166.382H232.188L223.045 356.62Z" fill="#263238"/>
<path d="M232.188 166.382L225.702 301.321L208.683 166.382H232.188Z" fill="#37474F"/>
<path d="M220.616 347.846C219.094 347.679 217.536 347.688 216.005 347.626C214.474 347.565 213.066 347.547 211.605 347.521C208.56 347.468 205.524 347.415 202.479 347.38C196.469 347.327 190.458 347.283 184.448 347.301C181.034 347.301 177.637 347.415 174.222 347.565C174.205 347.571 174.189 347.582 174.179 347.597C174.168 347.612 174.162 347.63 174.162 347.648C174.162 347.667 174.168 347.685 174.179 347.7C174.189 347.715 174.205 347.726 174.222 347.732C180.268 348.093 186.305 348.19 192.359 348.269C198.414 348.348 204.38 348.366 210.39 348.357C212.08 348.357 213.761 348.357 215.45 348.357C217.14 348.357 218.918 348.357 220.616 348.198C220.663 348.198 220.707 348.18 220.74 348.147C220.773 348.114 220.792 348.069 220.792 348.022C220.792 347.976 220.773 347.931 220.74 347.898C220.707 347.865 220.663 347.846 220.616 347.846Z" fill="#455A64"/>
<path d="M204.424 176.255C201.45 197.771 198.695 219.305 195.774 240.83C192.852 262.354 189.772 283.659 186.657 305.07C184.897 317.082 183.075 329.076 181.465 341.15C181.465 341.334 181.72 341.405 181.755 341.22C185.689 319.862 188.795 298.346 191.919 276.857C195.043 255.367 197.903 234.018 200.552 212.555C202.039 200.499 203.482 188.434 204.706 176.352C204.723 176.132 204.45 176.097 204.424 176.255Z" fill="#455A64"/>
<path d="M232.232 331.065C232.232 331.065 237.09 367.189 237.09 367.215C237.134 374.458 237.301 380.811 237.697 384.094C237.693 384.111 237.693 384.129 237.697 384.146C237.709 384.923 237.895 385.687 238.242 386.382C238.242 386.382 238.242 386.382 238.286 386.426C240.451 387.869 292.178 389.189 294.219 388.555C296.261 387.922 294.606 382.07 292.398 380.222C290.189 378.374 274.428 367.955 274.428 367.955L268.347 330.115L232.232 331.065Z" fill="#E7BD8C"/>
<path d="M294.228 388.555C292.195 389.189 240.469 387.869 238.295 386.426C238.295 386.426 238.295 386.426 238.295 386.373C237.936 385.682 237.746 384.916 237.741 384.138C237.737 384.12 237.737 384.102 237.741 384.085C237.32 380.287 237.138 376.466 237.195 372.645C245.643 378.004 267.52 380.389 274.472 378.866C280.632 377.511 279.277 372.548 277.992 370.313C282.762 373.49 290.902 378.954 292.459 380.248C294.615 382.061 296.27 387.922 294.228 388.555Z" fill="#263238"/>
<path d="M277.939 370.286C277.939 370.286 260.533 367.453 248.626 376.86L277.939 370.286Z" fill="#263238"/>
<path d="M201.441 166.32C201.59 167.024 203.984 178.13 206.466 187.669C208.27 194.638 210.126 200.763 211.191 201.397C212.397 202.11 218.275 204.714 220.246 205.533L227.92 356.268L280.157 355.098L252.877 190.749L248.283 166.32H201.441Z" fill="#263238"/>
<path d="M208.076 199.901C212.271 201.428 216.325 203.315 220.194 205.542C220.223 205.559 220.245 205.587 220.256 205.62C220.266 205.653 220.264 205.689 220.25 205.72C220.236 205.752 220.211 205.777 220.179 205.791C220.148 205.805 220.112 205.807 220.079 205.797C215.996 204.037 211.834 202.365 207.856 200.385C207.792 200.356 207.742 200.302 207.717 200.236C207.692 200.17 207.695 200.097 207.724 200.033C207.753 199.969 207.807 199.919 207.873 199.894C207.939 199.869 208.012 199.872 208.076 199.901Z" fill="#455A64"/>
<path d="M206.844 171.943C206.844 171.802 207.099 171.767 207.099 171.943C207.099 176.792 207.381 181.06 207.786 185.583C207.979 187.686 209.669 199.311 213.312 198.466C213.928 198.317 214.192 197.718 214.333 196.803C214.32 195.6 214.157 194.403 213.849 193.239C213.444 190.802 213.118 188.364 212.907 185.909C212.486 181.331 212.536 176.722 213.057 172.154C213.064 172.128 213.079 172.105 213.101 172.089C213.122 172.073 213.149 172.064 213.176 172.064C213.203 172.064 213.229 172.073 213.25 172.089C213.272 172.105 213.287 172.128 213.294 172.154C213.183 178.498 213.554 184.84 214.403 191.127C214.861 194.154 216.383 198.704 213.224 199.17C210.065 199.637 207.944 192.025 207.522 189.939C206.522 183.995 206.294 177.946 206.844 171.943Z" fill="#455A64"/>
<path d="M213.215 198.748C213.544 199.532 213.818 200.337 214.034 201.159C214.269 201.793 214.385 202.464 214.377 203.139C214.372 203.167 214.359 203.192 214.339 203.212C214.319 203.232 214.294 203.246 214.267 203.251C214.24 203.257 214.211 203.254 214.185 203.244C214.159 203.233 214.137 203.215 214.122 203.192C213.734 202.597 213.437 201.948 213.242 201.265C212.969 200.517 212.67 199.778 212.415 199.03C212.377 198.923 212.384 198.807 212.432 198.705C212.481 198.604 212.568 198.526 212.674 198.488C212.78 198.451 212.897 198.457 212.998 198.506C213.1 198.555 213.178 198.642 213.215 198.748Z" fill="#455A64"/>
<path d="M277.2 347.899C275.678 347.776 274.111 347.82 272.58 347.802C271.049 347.785 269.65 347.802 268.18 347.802C265.144 347.802 262.099 347.873 259.063 347.926C253.053 348.04 247.042 348.172 241.032 348.357C237.618 348.462 234.221 348.665 230.824 348.911C230.806 348.917 230.791 348.928 230.78 348.943C230.769 348.958 230.764 348.976 230.764 348.995C230.764 349.013 230.769 349.031 230.78 349.046C230.791 349.062 230.806 349.073 230.824 349.078C236.878 349.272 242.915 349.193 248.97 349.078C255.024 348.964 260.99 348.832 266.992 348.656L272.052 348.48C273.759 348.41 275.519 348.383 277.209 348.172C277.232 348.157 277.251 348.137 277.264 348.112C277.277 348.088 277.283 348.061 277.282 348.033C277.282 348.006 277.273 347.979 277.259 347.955C277.245 347.932 277.224 347.913 277.2 347.899Z" fill="#455A64"/>
<path d="M254.32 327.615C253.871 323.013 253.378 318.41 252.903 313.808C251.953 304.691 250.973 295.58 249.964 286.475C247.963 268.259 245.91 250.043 243.804 231.827C242.634 221.61 241.666 211.358 240.337 201.159C240.337 201.071 240.178 201.071 240.187 201.159C240.979 210.382 242.106 219.569 243.038 228.774C243.971 237.978 244.869 246.998 245.819 256.106C247.708 274.334 249.65 292.553 251.645 310.763C252.208 315.876 252.771 320.989 253.405 326.102C254.038 331.214 254.716 336.318 255.358 341.431C255.358 341.554 255.57 341.554 255.552 341.431C255.112 336.82 254.769 332.218 254.32 327.615Z" fill="#455A64"/>
<path d="M197.56 187.158L206.474 187.73L232.461 189.42L252.894 190.749L248.283 166.32H201.441H197.921L197.56 187.158Z" fill="#263238"/>
<path d="M210.038 71.0512C201.502 78.364 203.878 89.0384 200.314 94.8112C198.132 98.3312 191.039 102.089 189.622 106.163C187.308 112.869 192.984 115.271 191.717 118.914C189.957 124.071 183.014 123.675 181.764 132.114C180.514 140.554 189.807 149.53 211.851 151.967C233.895 154.405 245.995 146.326 246.787 139.163C247.579 132 240.249 129.624 239.747 124.274C239.43 120.859 243.954 118.474 244.147 112.191C244.341 105.908 238.251 103.858 237.371 98.516C236.491 93.1744 239.325 80.1944 231.475 73.568C223.626 66.9416 214.245 67.4432 210.038 71.0512Z" fill="#263238"/>
<path d="M211.024 71.28C208.637 72.9692 206.693 75.209 205.357 77.8096C203.975 80.5675 202.918 83.4763 202.206 86.4776C201.839 88.2653 201.266 90.0046 200.499 91.6608C199.738 93.0437 198.737 94.2803 197.542 95.3128C195.158 97.4688 192.306 99.1144 190.168 101.534C188.03 103.954 186.56 106.902 187.37 110.026C187.81 111.725 188.936 113.115 189.631 114.699C190.326 116.283 190.511 118.078 189.27 119.328C188.162 120.393 186.569 120.886 185.319 121.757C184.084 122.617 182.996 123.672 182.098 124.881C181.19 126.075 180.541 127.445 180.191 128.904C179.841 130.363 179.798 131.879 180.066 133.355C181.368 140.21 187.801 144.109 193.741 146.555C194.568 146.898 195.395 147.233 196.231 147.558C196.363 147.611 196.469 147.426 196.337 147.374C190.379 144.734 183.462 141.574 181.174 134.904C180.644 133.449 180.458 131.892 180.628 130.353C180.799 128.815 181.324 127.336 182.16 126.034C183.003 124.751 184.07 123.63 185.31 122.725C186.507 121.845 187.898 121.29 189.112 120.454C189.718 120.07 190.21 119.532 190.54 118.895C190.869 118.258 191.023 117.545 190.986 116.829C190.799 115.253 190.238 113.744 189.35 112.429C188.423 111.07 187.932 109.462 187.942 107.818C188.121 106.219 188.729 104.699 189.702 103.418C191.558 100.778 194.304 99.0704 196.742 97.0816C199.265 95.2332 201.143 92.6379 202.11 89.6632C202.567 88.088 202.849 86.4688 203.245 84.8848C203.6 83.395 204.038 81.9261 204.556 80.4848C205.529 77.6134 207.122 74.9909 209.22 72.8024C209.771 72.2425 210.379 71.7412 211.033 71.3064C211.2 71.28 211.094 71.192 211.024 71.28Z" fill="#263238"/>
<path d="M247.764 133.918C247.495 132.753 246.976 131.66 246.242 130.715C245.476 129.747 244.552 128.955 243.698 128.075C242.831 127.268 242.206 126.235 241.894 125.092C241.74 123.695 242.086 122.289 242.871 121.123C243.617 119.892 244.275 118.61 244.842 117.286C245.588 115.267 245.851 113.102 245.611 110.963C245.371 108.824 244.635 106.77 243.461 104.966C242.713 103.734 241.868 102.564 241.102 101.341C240.264 100.008 239.607 98.57 239.149 97.064C238.154 93.7464 237.943 90.244 237.134 86.8824C236.278 83.4384 235.078 80.0893 233.552 76.8856C233.552 76.8064 233.394 76.8856 233.438 76.956C234.793 79.8476 235.84 82.8739 236.562 85.9848C237.266 88.9328 237.538 91.9424 238.058 94.9168C238.288 96.3816 238.662 97.8201 239.175 99.2112C239.699 100.496 240.338 101.73 241.085 102.898C242.581 105.327 244.112 107.721 244.526 110.607C244.937 113.436 244.441 116.323 243.109 118.853C241.947 121.044 240.328 123.464 241.349 126.025C242.229 128.198 244.27 129.545 245.652 131.305C246.376 132.297 246.883 133.43 247.139 134.631C247.396 135.832 247.396 137.073 247.139 138.274C245.951 144.434 239.774 147.506 233.983 147.814C233.946 147.814 233.91 147.828 233.884 147.855C233.857 147.881 233.842 147.917 233.842 147.954C233.842 147.992 233.857 148.028 233.884 148.054C233.91 148.08 233.946 148.095 233.983 148.095C239.017 148.034 244.499 145.825 246.858 141.108C247.988 138.89 248.309 136.347 247.764 133.918Z" fill="#263238"/>
<path d="M214.975 114.998C213.409 121.405 194.797 181.456 191.11 182.292C180.259 184.738 167.218 186.534 167.411 177.628C167.719 163.654 193.987 126.87 206.571 114.646C214.852 106.594 216.524 108.671 214.975 114.998Z" fill="#AD6359"/>
<path d="M214.975 114.998C213.409 121.405 194.797 181.456 191.11 182.292C180.259 184.738 167.218 186.534 167.411 177.628C167.719 163.654 193.987 126.87 206.571 114.646C214.852 106.594 216.524 108.671 214.975 114.998Z" fill="#AD6359"/>
<path d="M167.341 180.831C162.835 164.991 200.913 118.43 208.322 112.499C215.732 106.568 216.691 108.425 215.186 115.914C213.682 123.402 195.677 180.092 191.84 182.16C188.003 184.228 169.382 188.012 167.341 180.831Z" fill="#EBEBEB"/>
<path d="M198.458 150.929L194.278 179.687C194.278 179.687 241.146 180.382 252.78 179.564C252.78 179.564 243.294 125.796 230.78 112.218C224.523 105.424 217.175 105.926 212.494 110.678C211.314 111.883 197.173 130.566 195.686 137.702C194.383 143.994 198.458 150.929 198.458 150.929Z" fill="#009246"/>
<path d="M225.597 108.24C225.597 108.24 220.141 258.157 223.036 265.276C225.931 272.395 269.5 279.462 269.5 279.462C269.5 279.462 256.714 172.154 245.115 139.586C234.362 109.384 225.597 108.24 225.597 108.24Z" fill="#EBEBEB"/>
<path d="M254.707 200.411C250.751 200.957 246.767 201.269 242.774 201.344C237.195 201.344 231.66 200.798 230.058 200.781C229.918 200.781 229.847 201.247 229.944 201.256C234.171 201.765 238.421 202.059 242.678 202.136C246.574 202.108 250.461 201.74 254.294 201.036C254.294 202.215 254.294 203.139 254.294 204.327C250.36 205.084 242.774 206.395 230.534 204.82C230.49 204.327 230.534 201.696 230.454 200.974C230.454 200.869 229.979 200.842 229.962 200.974C229.865 201.687 229.574 208.014 229.566 209.299C229.566 212.467 229.759 221.408 230.542 223.142C232.302 227.066 239.967 227.075 242.088 227.093C244.209 227.11 251.02 227.322 253.572 224.822C254.936 223.494 255.226 216.242 255.024 209.862C254.892 206.8 254.883 200.473 254.707 200.411ZM242.651 226.354C235.893 226.354 232.971 224.946 231.915 223.529C230.701 221.892 230.595 219.023 230.507 215.864C230.437 213.382 230.507 205.612 230.507 205.454C234.441 206.246 244.834 207.328 254.267 205.137C254.267 208.815 254.267 211.763 254.267 215.45C254.267 218.09 254.1 222.596 252.745 224.154C251.68 225.456 247.535 226.345 242.651 226.354Z" fill="#A6A6A6"/>
<path d="M196.865 265.936C194.454 271.638 180.039 275.51 180.039 275.51L198.203 150.41C195.904 146.644 195.006 142.188 195.668 137.826C196.891 130.786 211.579 110.449 213.955 109.402C211.503 119.904 209.8 130.567 208.859 141.31C204.785 185.284 199.505 259.714 196.865 265.936Z" fill="#EBEBEB"/>
<path d="M200.297 128.322C201.608 126.236 202.937 124.168 204.239 122.074C204.239 122.012 204.178 121.942 204.134 122.003C202.822 123.763 201.546 125.462 200.279 127.213C200.702 126.28 201.106 125.338 201.485 124.379C201.485 124.274 201.379 124.177 201.326 124.291C200.746 125.523 200.218 126.773 199.698 128.031C198.566 129.597 197.565 131.254 196.706 132.986C194.821 136.577 194.257 140.716 195.114 144.681C195.382 145.786 195.775 146.858 196.284 147.875C196.636 148.57 197.762 150.075 197.754 150.119C197.023 154.22 196.469 158.365 195.888 162.492C195.307 166.619 194.709 170.834 194.225 175.023C193.952 177.399 193.776 179.784 193.424 182.142C193.424 182.23 193.547 182.266 193.565 182.142C193.864 180.083 194.304 178.05 194.674 175.982C195.043 173.914 195.386 171.882 195.712 169.822C196.381 165.669 196.979 161.506 197.578 157.344C197.921 154.986 198.29 152.636 198.554 150.304C198.168 149.41 197.718 148.546 197.208 147.717C196.785 146.846 196.44 145.939 196.178 145.006C195.637 143.118 195.47 141.142 195.686 139.19C196.143 135.212 198.202 131.666 200.297 128.322Z" fill="#263238"/>
<path d="M213.84 109.859C212.461 111.954 211.059 114.028 209.634 116.081C208.199 118.131 206.8 120.208 205.339 122.241V121.757L208.859 125.444L209.15 125.743L208.842 126.042C207.363 127.477 205.858 128.876 204.362 130.293L204.486 129.923C205.031 133.734 205.612 137.544 206.096 141.363C206.58 145.182 207.099 149.01 207.522 152.803C206.791 149.019 206.131 145.226 205.498 141.425C204.864 137.623 204.266 133.822 203.658 129.985V129.774L203.817 129.624C205.304 128.198 206.782 126.764 208.287 125.365V125.963L204.75 122.32L204.53 122.082L204.714 121.827C206.193 119.812 207.733 117.832 209.229 115.834C210.725 113.837 212.282 111.822 213.84 109.859Z" fill="#A6A6A6"/>
<path d="M229.575 118.862C233.579 124.142 251.636 145.112 252.78 146.96C253.555 148.201 249.199 154.053 249.26 154.88C249.647 158.312 256.714 180.338 259.635 177.936C263.481 174.786 281.186 152.83 278.617 143.378C276.047 133.927 235.735 111.223 229.539 109.384C223.344 107.545 225.615 113.696 229.575 118.862Z" fill="#AD6359"/>
<path d="M252.314 147.25C252.314 145.913 231.194 123.429 227.313 115.914C223.432 108.398 225.403 106.797 235.312 111.619C245.221 116.442 275.642 134.103 279.25 142.886C282.858 151.668 263.058 175.806 263.058 175.806L249.207 152.495C249.207 152.495 252.296 148.35 252.314 147.25Z" fill="#EBEBEB"/>
<path d="M265.76 169.083C260.982 160.204 254.619 151.598 253.616 150.022C253.563 149.943 253.449 150.022 253.502 150.102C254.566 151.598 260.779 162.228 265.637 169.171C265.663 169.25 265.76 169.171 265.76 169.083Z" fill="#263238"/>
<path d="M244.473 137.526C243.593 136.435 242.766 135.318 241.833 134.244C240.9 133.17 239.985 132.079 239.043 131.014C237.148 128.85 235.218 126.72 233.253 124.626C233.253 124.626 233.174 124.626 233.2 124.626C234.209 125.905 235.233 127.166 236.271 128.41C235.62 127.864 234.925 127.362 234.221 126.878C234.221 126.878 234.159 126.878 234.221 126.931C234.828 127.53 235.462 128.119 236.122 128.691L237.09 129.483C237.18 129.561 237.274 129.635 237.371 129.703C237.794 130.205 238.251 130.706 238.63 131.199C239.51 132.282 240.469 133.364 241.419 134.429C242.37 135.494 243.408 136.541 244.394 137.614C244.42 137.667 244.526 137.588 244.473 137.526Z" fill="#263238"/>
<path d="M247.007 183.709C244.948 181.949 248.222 180.514 248.222 180.514C248.222 180.514 243.021 181.394 241.604 178.754C240.187 176.114 244.244 174.627 244.543 174.513C244.27 174.557 239.474 175.261 238.322 172.445C237.169 169.629 241.428 168.643 241.71 168.582C241.437 168.582 237.829 167.966 237.442 165.634C236.782 161.621 247.245 162.395 249.762 160.283C249.762 160.283 249.348 155.003 249.286 154.889C249.823 156.11 250.752 157.117 251.926 157.749C254.109 158.629 256.089 159.254 256.881 160.442C257.241 160.961 257.428 161.582 257.414 162.215C257.4 162.847 257.185 163.459 256.802 163.962C256.802 163.962 259.688 163.962 260.665 166.153C261.158 167.27 259.785 169.066 259.785 169.066C260.438 169.102 261.068 169.318 261.607 169.689C262.145 170.06 262.571 170.572 262.838 171.169C263.446 172.753 261.958 174.31 261.958 174.31C261.958 174.31 264.132 175.437 264.211 177.258C264.475 180.981 251.425 187.502 247.007 183.709Z" fill="#E7BD8C"/>
<path d="M261.853 174.636C261.897 174.636 261.932 174.636 261.897 174.698C257.99 178.029 253.162 180.091 248.054 180.611C247.887 180.611 247.799 180.365 247.975 180.321C252.852 179.108 257.526 177.193 261.853 174.636Z" fill="#263238"/>
<path d="M259.917 169.11C259.97 169.11 260.014 169.154 259.97 169.198C255.624 172.825 250.125 174.782 244.464 174.715C244.27 174.715 244.095 174.504 244.323 174.495C248.16 174.363 255.895 171.6 259.917 169.11Z" fill="#263238"/>
<path d="M241.314 168.441C246.849 168.441 251.83 166.681 256.687 164.155C256.749 164.155 256.784 164.217 256.74 164.252C254.707 166.144 251.46 167.446 248.82 168.238C246.398 169.023 243.813 169.16 241.323 168.634C241.208 168.608 241.191 168.441 241.314 168.441Z" fill="#263238"/>
<path d="M262.187 174.354C262.689 173.946 263.069 173.407 263.285 172.797C263.501 172.187 263.544 171.529 263.41 170.896C263.225 170.291 262.828 169.772 262.293 169.435C261.635 169.12 260.91 168.969 260.181 168.995C260.644 168.479 260.94 167.834 261.031 167.147C261.122 166.459 261.004 165.76 260.691 165.141C260.332 164.596 259.778 164.209 259.142 164.058C258.408 163.904 257.656 163.848 256.907 163.891C257.256 163.569 257.524 163.169 257.689 162.724C257.854 162.28 257.912 161.802 257.858 161.33C257.779 160.814 257.578 160.323 257.272 159.899C256.966 159.475 256.564 159.13 256.098 158.893C255.006 158.347 253.854 157.931 252.666 157.652C252.053 157.489 251.462 157.253 250.906 156.948C250.413 156.649 249.718 156.068 249.647 155.478C249.647 155.355 249.462 155.434 249.524 155.478C249.764 155.883 250.025 156.273 250.307 156.649C250.639 157.009 251.018 157.323 251.434 157.582C252.479 158.118 253.561 158.579 254.672 158.963C255.643 159.336 256.461 160.024 256.995 160.917C257.234 161.384 257.338 161.908 257.295 162.43C257.251 162.953 257.062 163.453 256.749 163.874C256.74 163.884 256.735 163.898 256.733 163.911C256.732 163.925 256.735 163.939 256.742 163.951C256.748 163.964 256.758 163.974 256.77 163.98C256.783 163.987 256.797 163.989 256.81 163.988C257.481 164.06 258.14 164.214 258.773 164.446C259.294 164.653 259.742 165.012 260.058 165.475C260.337 166.044 260.461 166.676 260.418 167.308C260.375 167.94 260.165 168.549 259.811 169.074C260.526 169.217 261.211 169.482 261.835 169.858C262.238 170.166 262.544 170.585 262.715 171.063C262.907 171.61 262.943 172.199 262.819 172.765C262.695 173.331 262.415 173.851 262.011 174.266V174.31C262.011 174.31 262.698 174.698 262.733 174.706C262.768 174.715 262.733 174.706 262.733 174.662C262.557 174.55 262.374 174.447 262.187 174.354Z" fill="#263238"/>
<path d="M226.292 109.437C227.357 111.698 228.404 113.978 229.416 116.266C230.428 118.554 231.458 120.833 232.426 123.138L232.549 123.429L232.285 123.605L228.07 126.456L228.193 125.866C229.337 127.574 230.446 129.307 231.563 131.041L231.669 131.208L231.616 131.393C230.481 134.913 229.39 138.433 228.21 141.891C227.031 145.35 225.861 148.87 224.62 152.337C225.57 148.773 226.582 145.235 227.621 141.706C228.659 138.178 229.742 134.666 230.815 131.146V131.498C229.68 129.738 228.545 128.066 227.436 126.333L227.198 125.972L227.55 125.743L231.818 122.971L231.678 123.438C230.718 121.123 229.838 118.782 228.906 116.459C227.973 114.136 227.154 111.76 226.292 109.437Z" fill="#A6A6A6"/>
<path d="M230.78 113.793C230.56 108.671 224.18 107.334 220.317 107.228C215.732 107.105 212.775 107.818 211.086 112.429C209.326 117.295 208.701 122.786 208.366 127.934C208.356 128.133 208.267 128.319 208.119 128.452C207.972 128.585 207.777 128.653 207.579 128.643C207.38 128.632 207.194 128.543 207.062 128.396C206.929 128.248 206.86 128.054 206.87 127.855C207.258 121.924 207.548 110.906 212.986 107.105C218.002 103.585 231.906 105.186 232.276 113.872C232.276 114.831 230.815 114.752 230.78 113.793Z" fill="#455A64"/>
<path d="M204.037 130.548C204.003 131.228 204.171 131.902 204.521 132.486C204.87 133.07 205.385 133.538 206 133.829C206.615 134.12 207.302 134.223 207.975 134.124C208.649 134.024 209.277 133.728 209.782 133.271C210.287 132.814 210.645 132.218 210.81 131.558C210.976 130.898 210.943 130.204 210.714 129.563C210.485 128.922 210.072 128.364 209.525 127.958C208.979 127.552 208.325 127.317 207.645 127.283C206.735 127.242 205.845 127.562 205.17 128.174C204.494 128.785 204.087 129.638 204.037 130.548Z" fill="#263238"/>
<path d="M205.41 130.618C205.389 131.027 205.49 131.432 205.7 131.783C205.91 132.134 206.219 132.414 206.589 132.59C206.958 132.765 207.371 132.827 207.775 132.767C208.18 132.708 208.558 132.53 208.861 132.256C209.164 131.982 209.38 131.625 209.48 131.228C209.58 130.832 209.561 130.415 209.424 130.03C209.287 129.644 209.039 129.308 208.712 129.064C208.384 128.819 207.991 128.677 207.583 128.656C207.311 128.641 207.039 128.679 206.782 128.77C206.525 128.86 206.289 129.001 206.087 129.184C205.885 129.366 205.721 129.587 205.604 129.833C205.488 130.079 205.422 130.346 205.41 130.618Z" fill="#EBEBEB"/>
<path d="M227.375 130.293C225.192 144.998 226.16 148.421 227.524 149.934C228.548 150.974 229.798 151.763 231.176 152.24L231.511 151.246C230.299 150.817 229.201 150.119 228.299 149.204C227.313 148.113 226.248 144.98 228.404 130.425L227.375 130.293Z" fill="#C7C7C7"/>
<path d="M229.918 151.026L229.813 151.278C229.605 151.776 229.84 152.348 230.338 152.556L231.873 153.196C232.371 153.404 232.943 153.169 233.15 152.671L233.256 152.419C233.463 151.922 233.228 151.35 232.73 151.142L231.196 150.501C230.698 150.293 230.126 150.528 229.918 151.026Z" fill="#263238"/>
<path d="M236.72 129.615C240.742 140.07 242.079 145.886 240.926 147.928C240.245 149.016 239.328 149.936 238.242 150.621L238.779 151.501C240.017 150.718 241.061 149.665 241.833 148.421C243.206 145.992 242.009 140.43 237.697 129.228L236.72 129.615Z" fill="#C7C7C7"/>
<path d="M236.791 152.095L236.949 152.318C237.26 152.759 237.87 152.863 238.31 152.552L239.668 151.592C240.109 151.28 240.214 150.671 239.902 150.23L239.745 150.007C239.433 149.567 238.824 149.462 238.383 149.774L237.025 150.734C236.585 151.045 236.48 151.655 236.791 152.095Z" fill="#263238"/>
<path d="M238.014 128.753C237.276 126.421 236.394 124.138 235.374 121.915C234.808 120.947 233.994 120.148 233.015 119.601C232.813 119.601 232.698 117.779 232.637 116.283C232.593 114.972 232.558 113.432 232.197 113.045C231.994 112.872 231.732 112.785 231.466 112.801C231.2 112.818 230.951 112.937 230.771 113.133C230.454 113.555 230.604 115.086 230.701 116.398C230.815 117.894 230.921 119.715 230.701 119.733C229.871 120.432 229.22 121.319 228.8 122.32C228.048 124.708 227.481 127.15 227.102 129.624C226.943 131.19 227.462 131.322 227.92 131.428C228.562 131.569 228.914 131.102 229.214 129.36C229.689 126.588 230.164 121.959 232.03 121.766C233.904 121.766 235.189 126.447 236.078 129.052C236.632 130.68 236.958 130.812 237.626 130.583C238.031 130.442 238.48 130.24 238.014 128.753Z" fill="#263238"/>
<path d="M224.523 109.12C224.18 110 220.81 115.905 216.603 115.905C213.963 115.905 214.597 106.814 214.597 106.814V106.251L213.981 98.3312L223.837 93.8432L225.245 93.2625C225.245 93.2625 225.245 95.4448 225.245 98.1552V98.56C225.245 98.7184 225.245 98.8592 225.245 99C225.245 99.4048 225.245 99.8184 225.245 100.232C225.245 100.646 225.245 100.857 225.245 101.182C225.245 101.508 225.245 101.834 225.245 102.168C225.162 104.499 224.92 106.822 224.523 109.12Z" fill="#E7BD8C"/>
<path d="M225.227 98.1552C224.141 100.2 222.623 101.984 220.778 103.384C218.933 104.783 216.806 105.765 214.544 106.26L213.928 98.34L223.784 93.852L225.192 93.2712C225.192 93.2712 225.218 95.4448 225.227 98.1552Z" fill="#263238"/>
<path d="M204.019 86.5305C202.717 100.426 210.901 102.775 213.893 103.048C216.612 103.303 225.905 103.805 228.633 90.1209C231.361 76.4369 225.28 71.4385 219.12 70.5409C212.96 69.6433 205.313 72.6353 204.019 86.5305Z" fill="#E7BD8C"/>
<path d="M208.56 83.4417C208.877 83.4038 209.191 83.348 209.502 83.2745C209.846 83.2651 210.177 83.1412 210.443 82.9225C210.511 82.8358 210.548 82.7289 210.548 82.6189C210.548 82.5088 210.511 82.4019 210.443 82.3153C210.291 82.1585 210.1 82.0449 209.89 81.9861C209.68 81.9274 209.458 81.9255 209.246 81.9809C208.799 82.0322 208.386 82.245 208.085 82.5793C208.021 82.6621 207.983 82.7617 207.975 82.866C207.967 82.9703 207.989 83.0747 208.04 83.1663C208.09 83.2579 208.166 83.3328 208.259 83.3817C208.351 83.4306 208.456 83.4514 208.56 83.4417Z" fill="#263238"/>
<path d="M218.082 83.8112C217.766 83.7497 217.455 83.6704 217.149 83.5736C216.819 83.5326 216.511 83.3878 216.269 83.16C216.202 83.0728 216.167 82.9661 216.167 82.8564C216.167 82.7468 216.202 82.6401 216.269 82.5528C216.432 82.4066 216.632 82.3067 216.847 82.2633C217.062 82.22 217.285 82.2349 217.492 82.3064C217.934 82.389 218.33 82.6338 218.601 82.9928C218.659 83.078 218.69 83.1783 218.692 83.2813C218.694 83.3844 218.665 83.4856 218.61 83.5726C218.555 83.6596 218.475 83.7285 218.382 83.7709C218.288 83.8134 218.183 83.8274 218.082 83.8112Z" fill="#263238"/>
<path d="M215.952 87.2609C215.952 87.2609 216.023 87.2609 216.023 87.3489C215.935 88.2905 216.023 89.3905 216.832 89.7601C216.832 89.7601 216.832 89.8217 216.832 89.8129C215.785 89.6017 215.723 88.1409 215.952 87.2609Z" fill="#263238"/>
<path d="M216.858 86.3193C218.398 86.3193 218.328 89.3641 216.911 89.3817C215.494 89.3993 215.6 86.3369 216.858 86.3193Z" fill="#263238"/>
<path d="M217.457 86.4952C217.721 86.6712 217.976 86.988 218.337 87.0232C218.698 87.0584 218.997 86.7592 219.217 86.4512H219.27C219.27 87.0408 219.023 87.6392 218.39 87.7096C217.756 87.78 217.413 87.252 217.281 86.6536C217.254 86.5832 217.36 86.4248 217.457 86.4952Z" fill="#263238"/>
<path d="M210.223 86.9792C210.223 86.9792 210.144 86.9793 210.144 87.0673C210.144 88.0177 210.021 89.1088 209.158 89.408C209.158 89.408 209.158 89.4697 209.158 89.4609C210.214 89.3289 210.39 87.8768 210.223 86.9792Z" fill="#263238"/>
<path d="M209.387 85.9761C207.856 85.8441 207.698 88.9065 209.114 89.0297C210.531 89.1529 210.663 86.0905 209.387 85.9761Z" fill="#263238"/>
<path d="M208.736 86.1432C208.49 86.2928 208.235 86.5744 207.944 86.5832C207.654 86.592 207.372 86.24 207.179 85.9144C207.179 85.9144 207.135 85.9144 207.126 85.9144C207.082 86.504 207.24 87.12 207.795 87.2608C208.349 87.4016 208.675 86.9088 208.877 86.3808C208.912 86.24 208.842 86.0816 208.736 86.1432Z" fill="#263238"/>
<path d="M215.178 94.82C214.958 95.0488 214.738 95.3568 214.395 95.392C214.043 95.3926 213.696 95.3207 213.374 95.1808C213.374 95.1808 213.312 95.1808 213.33 95.1808C213.469 95.3651 213.655 95.5083 213.869 95.5951C214.083 95.6818 214.316 95.709 214.544 95.6736C214.74 95.6166 214.914 95.5024 215.044 95.3455C215.174 95.1887 215.255 94.9965 215.275 94.7936C215.292 94.8024 215.213 94.7848 215.178 94.82Z" fill="#263238"/>
<path d="M211.323 91.2473C211.323 91.2473 211.086 92.6641 211.059 93.3329C211.059 93.3945 211.218 93.4297 211.446 93.4473C212.017 93.57 212.611 93.5331 213.162 93.3406C213.713 93.1481 214.2 92.8074 214.57 92.3561C214.623 92.2945 214.57 92.2241 214.482 92.2593C213.609 92.8181 212.577 93.0775 211.543 92.9985C211.543 92.8137 212.045 90.5961 211.939 90.5785C211.418 90.6123 210.904 90.7128 210.408 90.8777C210.83 87.9209 211.719 85.0609 212.098 82.0777C212.098 82.0543 212.088 82.032 212.072 82.0155C212.055 81.999 212.033 81.9897 212.01 81.9897C211.986 81.9897 211.964 81.999 211.947 82.0155C211.931 82.032 211.922 82.0543 211.922 82.0777C210.872 85.1171 210.13 88.2538 209.704 91.4409C209.66 91.8105 211.059 91.3529 211.323 91.2473Z" fill="#263238"/>
<path d="M211.904 93.1041C212.227 93.5991 212.673 94.0022 213.198 94.2744C213.473 94.4001 213.779 94.4429 214.078 94.3976C214.773 94.2744 214.834 93.6584 214.746 93.1128C214.706 92.8105 214.626 92.5146 214.509 92.2328C213.756 92.7938 212.843 93.099 211.904 93.1041Z" fill="#263238"/>
<path d="M213.198 94.2745C213.473 94.4001 213.779 94.4429 214.078 94.3977C214.773 94.2745 214.834 93.6585 214.746 93.1129C214.397 93.1095 214.055 93.2214 213.775 93.4314C213.495 93.6413 213.292 93.9376 213.198 94.2745Z" fill="#FF9CBD"/>
<path d="M204.838 81.62C206.474 82.148 212.309 78.5224 214.65 73.304C215.057 76.3436 216.514 79.1452 218.768 81.224C222.57 84.744 226.178 85.008 226.178 85.008C226.178 85.008 227.304 91.2912 228.342 91.432C229.381 91.5728 235.919 70.0568 217.633 69.8104C217.633 69.8104 212.282 69.2736 208.938 72.3976C205.594 75.5216 204.838 81.62 204.838 81.62Z" fill="#263238"/>
<path d="M226.327 89.6105C226.327 89.6105 229.398 85.2809 231.37 86.3721C233.341 87.4633 231.009 93.7729 228.677 94.6265C228.386 94.7554 228.072 94.8241 227.754 94.8285C227.436 94.8328 227.12 94.7728 226.826 94.6519C226.531 94.5311 226.264 94.3519 226.041 94.1252C225.818 93.8985 225.643 93.629 225.526 93.3329L226.327 89.6105Z" fill="#E7BD8C"/>
<path d="M230.657 88.1672C230.657 88.1672 230.701 88.1672 230.657 88.2288C229.029 88.88 228.158 90.376 227.55 91.9424C227.646 91.7798 227.776 91.6399 227.931 91.5323C228.086 91.4248 228.262 91.3522 228.448 91.3195C228.634 91.2869 228.824 91.295 229.007 91.3433C229.189 91.3916 229.359 91.4789 229.504 91.5992C229.548 91.5992 229.504 91.696 229.46 91.6784C229.174 91.5886 228.867 91.5885 228.581 91.6781C228.294 91.7678 228.042 91.9429 227.858 92.18C227.554 92.5786 227.294 93.0094 227.084 93.4648C227.005 93.6144 226.741 93.5352 226.802 93.368C226.794 91.256 228.43 88.3608 230.657 88.1672Z" fill="#263238"/>
<path d="M214.518 109.006C213.911 109.322 214.799 120.639 215.187 121.273C215.327 121.51 222.755 115.641 225.227 108.073C225.227 108.099 220.88 105.714 214.518 109.006Z" fill="#E7BD8C"/>
<path d="M201.495 131.665L167.617 142.21L181.342 186.306L215.221 175.761L201.495 131.665Z" fill="#455A64"/>
<path d="M177.197 142.08L193.248 137.062L191.728 132.199L175.677 137.217L177.197 142.08Z" fill="#A6A6A6"/>
<path d="M179.326 136.074L181.306 135.458L180.602 133.214L185.407 131.71L186.111 133.954L188.082 133.338L186.806 129.254L178.024 132L179.326 136.074Z" fill="#A6A6A6"/>
<path d="M208.058 148.465C208.581 149 208.928 149.682 209.052 150.42C209.176 151.157 209.072 151.915 208.754 152.592C209.998 152.85 211.112 153.535 211.904 154.528C213.215 156.341 210.945 159.201 210.945 159.201C212.181 159.736 213.227 160.631 213.946 161.77C215.028 163.627 213.154 166.839 213.154 166.839C214.016 167.96 214.447 169.353 214.368 170.764C214.007 174.522 208.842 177.091 205.568 178.763C202.294 180.435 191.488 182.116 189.455 182.644L178.552 161.779C178.552 161.779 191.066 150.128 195.184 148.711C198.66 147.514 205.982 146.494 208.058 148.465Z" fill="#E7BD8C"/>
<path d="M180.039 160.424C176.308 163.293 165.079 174.337 167.719 179.96C170.359 185.583 179.37 185.02 191.84 182.16L180.039 160.424Z" fill="#AD6359"/>
<path d="M180.039 160.424C176.308 163.293 164.516 174.073 167.499 181.298C169.875 187.035 180.47 187.73 192.975 184.818L180.039 160.424Z" fill="#EBEBEB"/>
<path d="M186.56 185.055C182.653 175.771 177.126 166.575 176.282 164.93C176.279 164.919 176.274 164.909 176.266 164.901C176.259 164.892 176.25 164.886 176.24 164.882C176.23 164.877 176.219 164.876 176.208 164.877C176.196 164.878 176.186 164.881 176.176 164.887C176.167 164.893 176.159 164.901 176.153 164.91C176.148 164.919 176.144 164.93 176.143 164.941C176.142 164.952 176.144 164.963 176.148 164.973C176.152 164.984 176.159 164.993 176.167 165C177.047 166.593 182.248 177.76 186.428 185.143C186.463 185.222 186.56 185.152 186.56 185.055Z" fill="#263238"/>
<path d="M208.428 152.337C204.442 152.715 200.781 154.264 197.041 155.602C197.025 155.608 197.011 155.62 197.004 155.635C196.996 155.651 196.995 155.669 197.001 155.685C197.007 155.702 197.019 155.715 197.035 155.722C197.051 155.73 197.069 155.731 197.085 155.725C200.79 154.361 204.723 153.736 208.472 152.522C208.492 152.512 208.509 152.496 208.519 152.476C208.529 152.456 208.531 152.433 208.526 152.411C208.521 152.389 208.508 152.37 208.49 152.356C208.472 152.343 208.45 152.336 208.428 152.337Z" fill="#263238"/>
<path d="M210.742 158.963C209.842 159.141 208.969 159.437 208.146 159.843C207.266 160.222 206.386 160.6 205.506 161.005C203.746 161.806 201.986 162.642 200.27 163.539C200.191 163.539 200.27 163.706 200.27 163.662C202.03 162.87 203.79 162.105 205.603 161.383C206.483 161.022 207.363 160.67 208.305 160.327C209.177 160.05 210.018 159.681 210.813 159.227C210.848 159.218 210.878 159.195 210.896 159.164C210.914 159.132 210.919 159.095 210.91 159.06C210.9 159.025 210.877 158.995 210.846 158.977C210.815 158.959 210.777 158.954 210.742 158.963Z" fill="#263238"/>
<path d="M213.075 166.866C212.267 167.026 211.493 167.324 210.787 167.746L208.384 168.872C206.783 169.62 205.181 170.359 203.553 171.054C203.474 171.054 203.553 171.213 203.597 171.178C205.26 170.491 206.923 169.822 208.578 169.118L211.007 168.062C211.772 167.804 212.487 167.414 213.119 166.91C213.119 166.91 213.119 166.866 213.075 166.866Z" fill="#263238"/>
<path d="M179.52 160.618C178.212 161.582 176.971 162.634 175.806 163.768L174.926 164.648L174.548 164.894C174.02 165.246 173.492 165.607 172.999 166.003C172.044 166.781 171.138 167.619 170.289 168.511C170.227 168.582 170.289 168.67 170.394 168.608C171.323 167.771 172.315 167.006 173.36 166.32L173.765 166.047C173.272 166.584 172.797 167.138 172.357 167.71C171.17 169.229 170.077 170.819 169.083 172.471C169.039 172.55 169.162 172.612 169.206 172.533C171.028 169.611 178.966 161.797 179.837 160.855C180.708 159.914 180.206 160.081 179.52 160.618Z" fill="#263238"/>
<path d="M300.96 96.1752C295.382 103.634 288.267 109.807 280.095 114.277C271.931 109.804 264.822 103.631 259.248 96.1752C251.909 86.4952 252.27 71.2448 262.768 67.9536C274.419 64.3192 280.122 81.84 280.122 81.84C280.122 81.84 285.921 64.24 297.458 67.9976C307.93 71.3592 308.326 86.46 300.96 96.1752Z" fill="#009246"/>
<path d="M271.929 106.594L268.77 93.412L266.702 98.0584H253.906V96.5712H265.734L269.183 88.8008L271.656 99.0792L275.15 77.7832L278.23 94.6264L280.667 87.5952L284.504 99.1056L285.358 96.5624H306.363V98.0496H286.422L284.504 103.805L280.641 92.2152L277.781 100.47L275.229 86.4952L271.929 106.594Z" fill="white"/>
<path d="M367.057 320.25V333.731H361.671V326.058H343.006V333.731H337.621V320.25H367.057Z" fill="#009246"/>
<path opacity="0.1" d="M343.006 327.8H337.621V333.731H343.006V327.8Z" fill="black"/>
<path opacity="0.1" d="M367.057 327.8H361.671V333.731H367.057V327.8Z" fill="black"/>
<path d="M392.26 380.697H312.435L316.835 330.766H387.86L392.26 380.697Z" fill="#009246"/>
<path opacity="0.1" d="M352.352 380.697H312.435L316.835 330.766H352.352V380.697Z" fill="black"/>
<path d="M364.637 352.827V358.635H355.256V368.016H349.448V358.635H340.067V352.827H349.448V343.446H355.256V352.827H364.637Z" fill="#FFFFFD"/>
</svg>
