<svg width="32" height="32" viewBox="0 0 32 32" fill="none" xmlns="http://www.w3.org/2000/svg">
<path d="M20 12L14.6666 17.3333L12 14.6667M26.6666 8.2666V13.5531C26.6666 22.3108 20.0426 26.2371 17.2344 27.5082C16.9366 27.643 16.7888 27.7104 16.4518 27.7683C16.2393 27.8048 15.7617 27.8048 15.5491 27.7683C15.2122 27.7104 15.063 27.643 14.7652 27.5082C11.957 26.2371 5.33331 22.3107 5.33331 13.5531V8.2666C5.33331 6.77313 5.33331 6.02649 5.62396 5.45605C5.87962 4.95429 6.28728 4.54631 6.78904 4.29065C7.35947 4 8.10677 4 9.60024 4H22.4002C23.8937 4 24.6399 4 25.2104 4.29065C25.7121 4.54631 26.1206 4.95429 26.3763 5.45605C26.6669 6.02649 26.6666 6.77313 26.6666 8.2666Z" stroke="#4C77B7" stroke-width="2.5" stroke-linecap="round" stroke-linejoin="round"/>
</svg>
